<svg xmlns="http://www.w3.org/2000/svg" width="300" height="228" xmlns:v="https://vecta.io/nano"><path d="M222.6 46.6h2.2 5.8l5.9.1h11.6l-1.6 3.3-.9 1.8c-1.4 2.8-3.1 5.5-4.7 8.3q-4 6.7-7.7 13.5c-3.3 6.2-6.9 12.2-10.8 18.2l-1.1 1.7c-4.7 7.3-9.6 14.5-15.4 21.1l-1.3 1.4c-3.7 4-8.9 8-14.5 8.4h-2.5-1.4l-4.6.1h-3.1-6.7l-8.4.1h-6.6-3.1c-7 .1-12.2-.2-17.4-5.3-12-14.8-14.4-37-18.8-54.9-3.3 3.2-6.3 6.4-9 10.1l-1 1.2-2.6 3.5-1.1 1.6c-1.4 2.3-2.1 4.5-2.8 7.1l-1 3.1-1.4 4.9c-6.1 20.9-6.1 20.9-15.4 26.6-6.1 3.2-11.9 4.1-18.7 4.1h-1.4-4.4-2.9l-7.3-.1c.3-3 .8-5.7 1.8-8.7l.4-1.1 1.2-3.7.4-1.3c2.3-6.8 4.9-13.5 8.2-19.9l.7-1.6c3.6-7.3 7.5-14.2 12.4-20.7l1.2-1.5q1.6-2.1 3.3-4.2l1.5-1.6c5.5-6.4 11.6-11.1 19.6-13.8q2.4 0 4.8-.1h1.4 4.8 1.6l8.7-.1h7.2 8.6l3.3-.1c6.7 0 11.5.1 17 4.3 11.7 12.2 14.2 32.4 18 48.3l.4 1.6.3 1.3c.4 1.4.9 2.8 1.5 4.1 3.1-8 5.7-16.1 8.3-24.3 8.7-27.9 8.7-27.9 18-33.4 6.2-3.1 12.7-3.5 19.5-3.4z" fill="#146eb1"/><path d="M222.6 46.6h2.2 5.8l5.9.1h11.6l-1.6 3.3-.9 1.8c-1.4 2.8-3.1 5.5-4.7 8.3q-4 6.7-7.7 13.5c-3.3 6.2-6.9 12.2-10.8 18.2l-1.1 1.7c-4.7 7.3-9.6 14.5-15.4 21.1l-1.3 1.4c-3.4 3.6-8.5 7.8-13.6 8.4-3.6-.1-6.3-.4-9.1-3-2.4-3.3-4.1-7-5.7-10.8l-.8.7-1.1 1-1.1 1c-1 .7-1 .7-2.1.7l-.6 1.7c-1.1.4-1.1.4-2.2.6-7.9-9.8-11-22.7-14.7-34.5-5-17.1-5-17.1-16.1-30.5l.5-1.7h2.3v-1.2c6.3-.3 10.9-.2 16.1 3.9 12.1 11.3 14.5 33 18.2 48.5l.4 1.5.3 1.3c.4 1.4.9 2.8 1.5 4.1 3.1-8 5.7-16.1 8.3-24.3 8.7-27.9 8.7-27.9 18-33.4 6.2-3.1 12.7-3.5 19.5-3.4z" fill="#187bc0"/><path d="M217.3 46.7c-1.2 3.9-3 7.3-4.8 10.9l-.5 1.1c-5.3 10.4-10.8 21.1-17.9 30.3-2.9 3.9-4.4 7.8-5.9 12.4-4.6 13.9-4.6 13.9-8.5 16.6l-3.5-7.4-1.9 1.7c-1.9 1.7-1.9 1.7-3.2 1.7l-.6 1.7c-1.1.4-1.1.4-2.2.6-7.9-9.8-11-22.7-14.7-34.5-5-17.1-5-17.1-16.1-30.5l.5-1.7h2.3v-1.2c6.3-.3 10.9-.2 16.1 3.9 12.1 11.3 14.5 33 18.2 48.5l.4 1.5.3 1.3c.4 1.4.9 2.8 1.5 4.1 3.1-8 5.7-16.1 8.3-24.3 8.7-27.9 8.7-27.9 18-33.4 4.3-2.2 9.3-3.4 14.2-3.3z" fill="#2ba6e3"/><path d="M115.8 57.6l1.7 4.5c2-.9 3.8-2.1 5.7-3.4 6.2 9.3 10 19.5 13.9 29.9 6.6 19.2 6.6 19.2 20.3 33.4-2.1 2.1-5.6 1.9-8.5 2.3l-1.3.1c-4 .3-7.3-1.5-10.2-4-13.4-13.6-15.6-38.3-19.9-56-3.3 3.2-6.3 6.4-9 10.1l-1 1.2-2.6 3.5-1.1 1.6c-1.4 2.3-2.1 4.5-2.8 7.1l-1 3.1-1.4 4.9c-6.1 20.9-6.1 20.9-15.4 26.6-4.2 2.2-8.1 3.8-13 3.5l-1.8-1.2c4.4-9 9-17.8 14-26.4l2.4-4.1c20.9-36.7 20.9-36.7 31-36.7z" fill="#1fa8e6"/><path d="M112.2 51c1.9 1.3 3.3 2.6 4.7 4.3v1.1q-1.3 1.2-2.7 2.2c-6 4.9-11.4 10.5-16.1 16.6l-.7 1C85.9 91 77.3 108.1 69 124.8l1.2 1.2c-.6.5-.6.5-1.8.6h-1.6-1.7-1.8-1.8l-4.5-.1c.6-11.3 3.4-20.3 8.8-30.3l2.4-4.5 2.9-5.3 2.7-5.3c14.1-27.5 14.1-27.5 26.3-31.7 4.5-1.1 8.1-.7 12.1 1.6z" fill="#116bb3"/><path d="M217.3 46.7c-1.2 3.9-3 7.3-4.8 10.9l-.5 1.1c-5.3 10.4-10.8 21.1-17.9 30.3-2.9 3.9-4.4 7.8-5.9 12.4-4.6 13.9-4.6 13.9-8.5 16.6l-1.5-3.3-.8-1.8c-.6-1.8-.6-2.3 0-4v-2.3q.6-2.1 1.3-4.1l.4-1.2.9-2.6 2.3-7 .5-1.4c1.5-4.3 2.8-8.6 4.1-12.9 6.6-21.7 6.6-21.7 16.3-27.6a31.22 31.22 0 0 1 14.1-3.1z" fill="#24a8e6"/><path d="M235 46.7h13.1c-2.2 4.6-4.6 9-7.2 13.4q-4 6.7-7.7 13.5c-3.3 6.2-6.9 12.2-10.8 18.2l-1.1 1.7c-4.7 7.3-9.6 14.5-15.4 21.1l-1.3 1.4c-3.4 3.6-8.5 7.9-13.7 8.4l-1.2-.1h-2.1c1.9-2.2 4.5-3.3 6.9-4.7 2.7-1.7 4.1-3.5 5.7-6.2l1.2-1.9c6.6-10.3 11.7-21.4 16.9-32.3 5.2-11 10.7-21.9 16.7-32.5z" fill="#45afe3"/><path d="M107.2 65.5c.6 1.2.6 1.2.1 2.8l-.7 1.9c-1.6 4.2-2.9 8.4-4.1 12.6l-.7 2.2-3.2 10.9c-6.1 20.9-6.1 20.9-15.4 26.6-4.2 2.2-8.1 3.8-13 3.5l-1.8-1.2c4.4-9 9-17.8 14-26.4l2.4-4.1c5.9-10.4 12.7-20.4 21.9-28.2z" fill="#1699db"/><path fill-rule="evenodd" d="M72.9 140.7l2.7.1H77h3.4q2.5 6 4.6 12.2l.7 1.8 1.3 3.7 2 5.7 1.3 3.6.6 1.8.6 1.6.5 1.4c.4 1.1.7 2.3 1 3.5h-9.2c-2.2-5.5-2.2-5.5-2.2-7.4H69l-1.1 5.7-.6 1.7h-9.7l9.1-25.7.5-1.3 1.5-3.8.4-1.2c1.2-3.3 1.2-3.3 3.8-3.4zm1.8 9.2l-1.7 5.4-.5 1.5-.5 1.5-.4 1.3c-.4 1.1-.4 1.1-.3 2.3h8l-1.4-4.7-.4-1.4-.3-1.3-.4-1.2c-.4-1.2-.9-2.3-1.5-3.4h-.6z"/><path d="M102.6 48.4h2.1 2.3 2.3 6.2 6.2H134v.6l-1.2.3c-5 1-9.1 3-13.6 5.4l-2.3 1.2-1-1c-4-3.7-7.2-5.7-12.8-5.5-6.7.8-11.8 5.3-15.9 10.4-7.3 9.3-12.4 20.2-17.6 30.8-2 4.1-4.1 8.1-6.3 12.1l-.6 1.2q-.7 1.3-1.5 2.5c-1.2 3-1.7 6.1-2.2 9.3l-.4 2-1.6 8.8h-8.5c.3-3 .8-5.7 1.8-8.7l.4-1.1 1.2-3.7.4-1.3c2.3-6.8 4.9-13.5 8.2-19.9l.7-1.6c3.6-7.3 7.5-14.2 12.4-20.7l1.2-1.5q1.6-2.1 3.3-4.2l1.5-1.6c5.8-6.8 13.6-13.8 23-13.8z" fill="#05a0e5"/><path fill-rule="evenodd" d="M124.9 140.8c18.6 0 18.6 0 23.1 3.1 2.5 2.5 3.1 5.3 3.1 8.9-.2 3.3-1.1 5.8-3.4 8.2-4.4 3.5-8.9 3.4-14.2 3.2v11.9h-8.6v-35.3zm8.6 6.8v10.3c4.3.2 4.3.2 7.4-1.7 1.4-2.2 1.4-3.2 1.1-5.7-1-1.8-1-1.8-2.8-2.9-2-.2-3.7-.1-5.7 0zm-15.4-6.2v7.9l-2.6-.8c-3.5-1.1-6.6-1.7-10 0l-1.1.8c.1 1.4.1 1.4.5 2.9 1.1.8 1.1.8 2.4 1.4l1.4.7 1.5.7c4.3 2 7.3 3.6 9.2 8.2.6 3.4.5 6.4-1.3 9.4-2.2 2.6-5.1 3.8-8.4 4.3q-2.3.1-4.5 0l-1.6.1c-3.2-.1-5.5-.5-8.4-2v-8l2.9 1.1c3.7 1.4 6.4 2.1 10.3 1.2l1.7-1.2c0-1.3 0-1.3-.6-2.8-1.8-1.6-4-2.6-6.2-3.7-3.6-1.8-6.2-3.4-8.1-7.1-.6-7-.6-7 1.2-9.8 5.1-5.8 14.8-5.5 21.7-3.3zm49-.6c5.7 0 5.7 0 7 1l.8 1.4 1 1.6.9 1.7 2.1 3.3 2.1 3.4 9.5 14.9.6-27.3h4.5v35.3h-5.7c-1.4-1.4-2.2-2.5-3.2-4.2l-1.7-2.8-.9-1.6c-1.5-2.5-3.1-4.9-4.7-7.3l-4.5-7.2-2.7-3.7-.5 26.8h-4.6v-35.3z"/><path d="M119.8 61.6c1.7.5 1.7.5 2.6 2.1l1 2.1.5 1.2c1.8 4 3.2 8.1 4.5 12.3l1.4 4 3.8 12c4.7 14.7 4.7 14.7 14.7 26.1l2.3 2.3c-3.4 1.1-6 .9-9.2-.5-8.7-4.9-12.5-15.6-15.2-24.7l-1.9-6.7-.4-1.6-2.9-11.3-1-3.8-1.4-5.4-.4-1.7c-.4-1.4-.7-2.7-.7-4.2 1.1-1.5 1.1-1.5 2.3-2.2z" fill="#41ace4"/><path d="M235 46.7h1.7c-.8 4.5-2 8.7-3.5 13l-.7 2.1c-6.6 19.5-16.2 38.3-31.2 52.8l-1 1-.7.7-1.1-.6.7-.9c7.5-10.4 12.8-22.4 18.3-33.9 5.5-11.6 11.1-23.1 17.5-34.2z" fill="#2498db"/><path d="M204.2 140.8h18.2v4.5h-13.7v10.9h13.2v4h-13.2v11.9h14.9v4h-19.4zm21.7 0H251v4.6h-10.3v30.8h-4.6v-30.8h-10.2z"/><path d="M216.2 49c-1 3.5-2.6 6.6-4.2 9.7l-1 1.9c-5.5 10.8-11.7 21.3-18.8 31.2-.7-2.1-.4-2.6.2-4.6l.6-1.7.6-1.9.7-1.9 1.3-4 1.7-5.3c3.2-10 6.6-17.6 16.1-22.9 1-.5 1-.5 2.8-.5z" fill="#059add"/><path d="M176.2 110c1.4 1.4 1.8 2.6 2.5 4.4 1.3 3.2 2.6 6.3 5.5 8.4 1.4.4 2.6.4 4 .3l-.6 1.2h-38.7v-.6l1.3-.2c9.5-1.3 15.7-4.3 22.6-10.8 1.1-.9 2.2-1.8 3.4-2.7z" fill="#175fad"/><path d="M89 55.9l1.1.5-1.1 1.3c-8.6 10.2-14.4 22.6-20.3 34.6l-4.1 8-.7 1.4c-1.6 3-1.6 3-2.9 4.3 3.9-19.2 13.9-36.6 28-50.1z" fill="#329adc"/><path d="M115.8 57.6l.3.9.5 1.3.4 1.2c.5 1.2.5 1.2 1.6 2.3l-1.7.5-1.1 2.3-2.9 3.2c-2.7 2.8-5.1 5.9-7.5 9.1-.8 1.1-1.7 2.1-2.7 3.1.7-3.7 1.8-7.2 3-10.8.7-2 .7-2 1-4l-4 3.4c.9-1.9 1.4-2.8 2.9-4.2l1-1 1.1-1.1 1.1-1c5.2-5.2 5.2-5.2 7-5.2zm4 3.4l1.1.6z" fill="#2db4e4"/><path d="M189.4 95.2c.6 2.1.3 2.6-.4 4.6l-.7 1.8-.7 1.9-.7 1.7c-3.9 10.6-3.9 10.6-7.2 12.8l-1.5-3.3-.8-1.8c-.8-2.4-.8-2.4 0-4 1.1-1.2 1.1-1.2 2.5-2.5 3.5-3.5 6.5-7.3 9.5-11.2z" fill="#0799e0"/><path d="M106.1 48.4H134v.6l-1.2.3c-5 1-9.1 3-13.6 5.4l-2.3 1.2-.9-1c-3.1-2.9-5.9-4.6-9.9-5.9z" fill="#5fc1ea"/><path d="M168.3 116.8l6.2 5.7c-3.3 2.1-7.6 1.8-11.4 1.8h-1.2-3.9-2.7-6.4v-.6l1.3-.2c6.8-.9 12.5-2.5 18.1-6.7z" fill="#1967ba"/><path d="M209.3 118c2.3-.2 4.6-.3 6.9 0 1.5 1.4 1.5 1.4 2.2 2.8l1.2-2.8h1.7v6.3h-1.1l-.6-1.8-.6 1.8h-1.7l-.6-1.2-.5 1.2h-1.8v-5.2h-1.7v5.2H211v-5.2h-1.7z"/><path d="M106.1 48.4h15.4v1.2l-1.6.7c-1.8.9-1.8.9-3.1 2-1 .7-1 .7-2 .6-1.5-.5-2.8-1.2-4.2-1.8l-1.5-.8c-1.3-.7-1.3-.7-3-1.9z" fill="#6ec7eb"/><path d="M179.7 118.6l1.2 1.3c1.9 1.8 3.4 3.1 6.1 3.3l1.2-.1-.6 1.2c-8.4.3-8.4.3-11.9-1.8z" fill="#1867b9"/><path d="M155.7 171l4 .6.6 4c-1.2 1.1-1.2 1.1-2.8 1.3-1.8-.2-1.8-.2-2.9-1.2-.6-1.3-.6-1.3-.2-2.8.7-1.3.7-1.3 1.3-1.9z"/><path d="M116.9 55.9c1.4 1.6 2.6 3.1 3.4 5.1l-1.7 1.7-1.7-.6c-.5-1.1-.5-1.1-.9-2.6l-.5-1.4-.3-1.1z" fill="#2a76b3"/></svg>