<svg version="1.2" xmlns="http://www.w3.org/2000/svg" width="300" height="200"><style>.s0{fill:#c00}</style><path id="Layer" class="s0" d="M109.1 65.2h.4q6.8.3 13.5 1.9l.4.1c4.8 1.2 9.4 2.9 13.9 5l.3.2.6.2q.2.1.5.3l.6.2q.2.2.5.3l.3.1q2.1 1.1 4.1 2.3.2 0 .3.1.1 0 .2.1t.2.1q.2.1.3.2c2.3 1.3 4.6 2.7 6.8 4.2l.2.1q.4.3.9.6.4.3.9.7l.8.6q.5.3.9.6l.2.2 3 2.2.2.1c1.7 1.4 3.4 2.7 5 4.2l.1.1.2.2q.1 0 .1.1.1.1.2.1c1.6 1.4 1.6 1.4 2.2 2.2-.6.4-.6.4-.7.5q-.4.3-.7.6l-.3.2-.1.1c-.2.1-.2.1-.4.1-.2-.1-.4-.2-.5-.3l-.2-.2-.3-.1-.4-.3-.3-.2c-7.4-5.4-15.6-9.9-33.2-13.9h-.3c-1.2-.1-2.4-.1-3.6-.1h-.4c-1.8 0-3.5 0-5.3.3l-.4.1c-5.2.7-10.8 2.5-15.3 5.3l-.2.1c-1.1.7-2.2 1.4-3.3 2.2q-.2.1-.3.2l-.3.3-.3.1c-.2.2-.2.2-.3.4l-.2.1c-.4.2-.7.5-1 .7l-.1.2c-1.6 1.3-3.1 2.8-4.3 4.4q-.3.3-.6.7c-.6.7-1.2 1.5-1.7 2.3l-.1.2q-1.6 2.3-2.8 4.8 0 .1-.1.2l-.1.1v.2q-.1.1-.1.2c-4 8-5.2 17.4-4.5 34.8l.1.3q.2 1.3.4 2.7.1.4.1.8H38.6c.5-3.3.5-3.3.8-4.7v-.2c1.2-5.8 3-11.5 5.2-16.9l.2-.4q1.1-2.7 2.3-5.3l.1-.3q.6-1.1 1.1-2.2l.1-.3q1.1-2.1 2.2-4.1l.2-.2q0-.1.1-.3 0-.1.1-.2t.1-.2c2.3-4.2 5-8.2 8-11.9l.2-.2q.2-.3.5-.7.3-.4.6-.7.3-.4.6-.7.3-.4.6-.7l.2-.2q.6-.7 1.2-1.3l.4-.6 1.2-1.2q.3-.3.5-.6l1.4-1.4.3-.3 1.3-1.3q.3-.2.6-.5.5-.5 1-.9.3-.3.7-.6.6-.6 1.3-1.2.1 0 .2-.1l.2-.2q.1-.1.2-.1l.2-.2.4-.4q.3-.2.5-.4.3-.2.5-.4.3-.2.5-.4h.1l.1-.1.1-.1q.1 0 .1-.1 2.4-1.8 5-3.5l.2-.1c2.3-1.5 4.6-2.8 7-4l.3-.1c4.2-2.2 8.8-3.7 13.4-4.4h.3c2.6-.4 5.4-.6 8.1-.5z"/><path fill-rule="evenodd" class="s0" d="M108.9 99h17q.7 0 1.4-.1H129.8c3.8 0 7.4 1.6 10.1 4.3.6.6 1.1 1.3 1.6 2l.2.3c.9 1.4 1.4 3.1 1.7 4.7l.1.4c.6 4.4-.1 9.1-2.8 12.8-1.5 2-3.7 3.2-6.1 3.9l-.3.1q-.4.1-.7.2l.2.2 3.9 3.9 2 2q.8.8 1.7 1.6.4.5.8.9.1.1.3.2.1.1.2.3l.2.2.2.2.3.3q.8.7 1.5 1.5.2.3.5.6l.2.2.1.1.4.4.2.2c.1.1.1.1.1.2h-12.2q-.7 0-1.4.1H130c-.4-.1-.5-.3-.8-.6l-.3-.3-.3-.2-.2-.3q-.4-.4-.7-.8l-.1-.1q-.1-.1-.1-.2-.1 0-.2-.1l-.1-.1-.4-.4-.2-.2-.7-.7-.1-.1-.1-.1-.1-.1-.1-.1q-.4-.4-.7-.8-.3-.4-.7-.7l-.2-.2-.2-.2-.2-.2-.2-.2-.2-.2q-.5-.5-.9-1l-1.9-1.9-.1 9.7h-11.3zm11.3 10.5v9.4l4.4.1h2.7c1.5 0 1.5 0 2.7-.7 1.2-1.2 1.6-2.7 1.6-4.4-.1-1.6-.6-2.9-1.7-4-.2-.1-.2-.1-.5-.1v-.2c-.4-.1-.7-.1-1.2-.1h-3.6zm39.4-10.2H164.3q1.1 0 2.3-.1H169.7c3.4 0 6.2.6 8.9 2.8l.3.2c2 1.6 2.9 4.2 3.2 6.7.1 1 .1 2.1.1 3.2v10.7q-.1 2.2-.1 4.5V140.6H171v-7.3h-10.6v7.3h-11.5v-30c0-3.3 1.3-6.2 3.6-8.6 1.9-1.9 4.4-2.7 7.1-2.7zm1.3 10.8c-.4.5-.6 1-.6 1.6v9.8h10.6v-5.2l.1-1.6v-2.9c0-.5-.1-.9-.4-1.4h-.2v-.2c-.4-.5-.9-.7-1.5-.9q-.5-.1-1-.1h-3.8c-1.1 0-2.3.1-3.2.9zm85.5-10.9h1.1q.2 0 .5.1h15.9V110h-18.8v4.8h8.7c3.4-.1 6.3.9 8.7 3.3 2.1 2 3 4.8 3 7.6v2.2c0 3.7-.5 6.8-3.2 9.6-2.1 2.1-5.1 3.1-8.1 3.1h-18.8V130q7-.1 13.9-.1h5.4v-5h-7.6c-3.4.1-6.6-.8-9.1-3.2-2.6-2.6-3.2-5.7-3.2-9.3 0-3.8.5-7 3.2-9.8 2.3-2.3 5.2-3.4 8.4-3.4z"/><path d="M203.8 99.3h11.9v30.6h15.9v10.7h-27.8zm-16.6 0h11.9v41.3h-11.9z" style="fill:#cb0000"/><path class="s0" d="M37.5 110c.4.1.7.2 1.1.3l.4.1.4.2q.1 0 .3.1.1.1.3.1.2.1.3.1.2.1.3.1.6.2 1.1.4.2.1.5.2l.4.2q.2 0 .5.1l.4.2.3.1c.3.1.3.1.5.2-.4 1.4-1 2.7-1.6 4q-.7 1.5-1.3 3.1c-.6-.1-1.1-.3-1.6-.5l-.3-.1q-.1 0-.2-.1H39q-.1-.1-.2-.1-.1-.1-.2-.1-.3-.1-.7-.2l-.4-.2-.4-.2q-.2-.1-.5-.1l-.4-.2-.3-.1q-.6-.2-1.3-.5c.1-.5.2-.9.4-1.4l.1-.2q.1-.4.3-.7l.1-.3c1.7-4.2 1.7-4.2 2-4.5zm48.9 18.9c.7.1 1.3.3 2 .5l.3.2q.4.1.8.3.5.1 1 .3.4.2.9.3l.3.2.4.1.3.1c.2.1.2.1.5.3v.2q.1.1.1.2V131.9l.1.3v.5q.1.5.2 1.1l.2 1.2q.1.5.2 1.1.2.6.3 1.2l.1.4v.3c.1.3.1.5.1.8q-1.2-.3-2.3-.7l-.3-.1q-.3-.1-.7-.3-.1 0-.2-.1-.1 0-.3-.1h-.2q-.2-.1-.3-.1-.1-.1-.2-.1-.2-.1-.3-.1-.1-.1-.2-.1t-.3-.1l-.4-.2q-.2 0-.5-.1l-.4-.2q-.3-.1-.5-.2c-.3-2.5-.6-4.9-.7-7.4zM57.8 82.8c.3.2.6.4.8.7q.6.5 1.2 1.1.8.6 1.5 1.2c.3.3.3.3.6.5-.2.4-.5.7-.8 1l-.6.8h-.2l-.1.2c-.1.2-.3.4-.5.6q-.6.8-1.2 1.5c-.2.3-.4.5-.7.7l-.2-.2q-.6-.6-1.4-1.1L55 88.6q-.6-.5-1.2-.9c-.2-.2-.3-.4-.5-.6l.2-.2.3-.2.2-.3q.3-.3.6-.7l1.4-1.4.4-.4.3-.3.3-.3c.5-.5.5-.5.8-.5zm31.3 24.8 2 1.6q.4.2.8.5 0 .1.1.1l.1.1.2.2.1.1q.3.2.5.4c.2.1.2.1.5.4 0 .3 0 .6-.1.9h-.2v.3l-.2 1.4-.1.2q-.1.4-.1.8c-.2.9-.3 1.7-.4 2.6q0 .4-.1.7c-.5-.1-.8-.4-1.1-.7q-.7-.6-1.4-1.1l-.2-.1v-.2l-.2-.1q-.3-.1-.6-.4l-.2-.1-.2-.2-.1-.1-.1-.1H88q0-.1-.1-.1l-.1-.2q-.3-.1-.5-.3.2-1.3.6-2.6v-.2c.9-3.5.9-3.5 1.2-3.8zm10.2-16.2c.4.2.5.4.8.7l.2.3.2.4.4.6.2.4q.5.7 1 1.5c-.2.4-.5.7-.8 1-.9 1-1.8 2.2-2.6 3.3-.4-.4-.8-.8-1.1-1.3l-.1-.3q-.1 0-.1-.1-.1 0-.1-.1t-.1-.1q0-.1-.1-.2l-.1-.1q-.1-.1-.1-.2l-.2-.2q0-.1-.1-.2-.1-.3-.3-.5l-.2-.2-.1-.2-.1-.2c-.1-.3-.1-.4 0-.6 1-1.4 2.2-2.5 3.4-3.7zM81.2 65c.3.3.5.5.7.9l.2.2.2.3q.2.3.3.6l.2.3q.1.1.1.2l.2.2q0 .1.1.2 0 .1.1.1l.1.2.4.6c.1.2.1.2.1.4l-.2.1q-.1.1-.2.1-.1.1-.2.1-.1.1-.3.2-.1 0-.2.1l-.3.2q-.3.1-.6.3-.3.2-.6.3l-.6.4q-.3.2-.6.3l-.2.2-.2.1c-.2.1-.2.1-.5 0-.1-.2-.1-.2-.3-.4l-.2-.2-.1-.3-.2-.2c-.4-.7-.4-.7-.4-.9h-.2l-.1-.2c-.3-.5-.5-.9-.8-1.3-.2-.3-.2-.3-.2-.5.1-.3.3-.4.6-.5l.3-.2.3-.2.4-.1 1-.6.3-.2 1.6-.8zm48-2.2q1.3.3 2.6.8l.6.2.6.2q.4.1.7.2.3.2.6.3.3.2.6.3c0 1.4-.1 2.7-.2 4.1l-.3-.1q-1.5-.6-3.1-1.1l-.8-.3-.5-.2-.2-.1q-.1 0-.2-.1h-.3q-.1-.1-.2-.1-.1-.1-.2-.1 0-.8.1-1.5V64l.1-.2q0-.5.1-1zm-13.6 19.8q0 .1.1.2 0 .1.1.2v.2q.1.1.1.2l.1.3q.1.4.3.8l.2.6q.2.6.4 1.3l-1 .4-.3.1-.4.2q-1.4.5-2.8 1.1c-.6.3-.6.3-.8.3q-.1-.2-.1-.4l-.2-.4q-.1-.2-.1-.4l-.2-.4q-.1-.3-.2-.5l-.2-.8-.1-.3q-.1-.1-.1-.2l-.1-.2c0-.2 0-.4.1-.6.2-.1.2-.1.5-.2l.3-.2.3-.1.3-.1.6-.2.6-.2q.3-.2.6-.3l.6-.2.3-.1.3-.1.3-.1c.2 0 .2 0 .5.1zm13.7-1.5q.4 0 .9.1h.3q1.4.1 2.9.4h.2c1.2.2 1.2.2 1.3.3 0 .8 0 1.7-.1 2.5v.4q-.1.4-.1.8h-.2q-.2-.1-.3-.1h-.3q-.1 0-.2-.1h-.5q-2.2-.3-4.4-.5 0-.8.1-1.6V82l.1-.2c0-.7 0-.7.3-.7zM107 59.4q.5 1.2.8 2.4l.1.3q.2.5.3.9h-.4q-.7 0-1.4.1h-.5q-1.8.1-3.5.2l-.4-1.2q-.1-.3-.2-.5l-.2-.6-.1-.4q-.1-.4-.2-.9c1.9-.2 3.8-.3 5.7-.3z"/></svg>